<?xml version="1.0" encoding="UTF-8"?>
<svg xmlns="http://www.w3.org/2000/svg" viewBox="0 0 1280 72" width="1280" height="72" role="img" aria-hidden="true">
  <rect x="140" y="10" width="1000" height="52" rx="10" fill="#f3f7f2" stroke="#c5d4c5" stroke-width="1"/>
  <text x="164" y="42" fill="#047857" font-family="ui-monospace, SFMono-Regular, Menlo, Consolas, monospace" font-size="13">$ which stack</text>
  <text x="280" y="30" fill="#6b7c70" font-family="ui-monospace, SFMono-Regular, Menlo, Consolas, monospace" font-size="11">ts</text>
  <rect x="280" y="38" width="100" height="7" rx="3" fill="#c5d4c5" opacity="0.45"/>
  <rect x="280" y="38" width="0" height="7" rx="3" fill="#047857">
    <animate attributeName="width" values="0;60;100;100;0" keyTimes="0;0.25;0.45;0.8;1" dur="5s" begin="0.0s" repeatCount="indefinite"/>
  </rect>
  <text x="430" y="30" fill="#6b7c70" font-family="ui-monospace, SFMono-Regular, Menlo, Consolas, monospace" font-size="11">py</text>
  <rect x="430" y="38" width="100" height="7" rx="3" fill="#c5d4c5" opacity="0.45"/>
  <rect x="430" y="38" width="0" height="7" rx="3" fill="#047857">
    <animate attributeName="width" values="0;69;100;100;0" keyTimes="0;0.25;0.45;0.8;1" dur="5s" begin="0.35s" repeatCount="indefinite"/>
  </rect>
  <text x="580" y="30" fill="#6b7c70" font-family="ui-monospace, SFMono-Regular, Menlo, Consolas, monospace" font-size="11">react</text>
  <rect x="580" y="38" width="100" height="7" rx="3" fill="#c5d4c5" opacity="0.45"/>
  <rect x="580" y="38" width="0" height="7" rx="3" fill="#047857">
    <animate attributeName="width" values="0;78;100;100;0" keyTimes="0;0.25;0.45;0.8;1" dur="5s" begin="0.7s" repeatCount="indefinite"/>
  </rect>
  <text x="760" y="30" fill="#6b7c70" font-family="ui-monospace, SFMono-Regular, Menlo, Consolas, monospace" font-size="11">torch</text>
  <rect x="760" y="38" width="100" height="7" rx="3" fill="#c5d4c5" opacity="0.45"/>
  <rect x="760" y="38" width="0" height="7" rx="3" fill="#047857">
    <animate attributeName="width" values="0;87;100;100;0" keyTimes="0;0.25;0.45;0.8;1" dur="5s" begin="1.0499999999999998s" repeatCount="indefinite"/>
  </rect>
  <text x="940" y="30" fill="#6b7c70" font-family="ui-monospace, SFMono-Regular, Menlo, Consolas, monospace" font-size="11">aws</text>
  <rect x="940" y="38" width="100" height="7" rx="3" fill="#c5d4c5" opacity="0.45"/>
  <rect x="940" y="38" width="0" height="7" rx="3" fill="#047857">
    <animate attributeName="width" values="0;96;100;100;0" keyTimes="0;0.25;0.45;0.8;1" dur="5s" begin="1.4s" repeatCount="indefinite"/>
  </rect>
</svg>
