<?xml version="1.0" encoding="UTF-8"?>
<svg xmlns="http://www.w3.org/2000/svg" viewBox="0 0 1280 56" width="1280" height="56" role="img" aria-hidden="true">
  <path d="M0,28.0 L8,29.2 L16,30.4 L24,31.6 L32,32.7 L40,33.7 L48,34.6 L56,35.4 L64,36.0 L72,36.5 L80,36.8 L88,37.0 L96,37.0 L104,36.8 L112,36.4 L120,35.9 L128,35.3 L136,34.5 L144,33.6 L152,32.6 L160,31.4 L168,30.3 L176,29.1 L184,27.8 L192,26.6 L200,25.4 L208,24.2 L216,23.1 L224,22.2 L232,21.3 L240,20.5 L248,19.9 L256,19.4 L264,19.1 L272,19.0 L280,19.0 L288,19.2 L296,19.6 L304,20.1 L312,20.8 L320,21.6 L328,22.6 L336,23.6 L344,24.7 L352,25.9 L360,27.1 L368,28.4 L376,29.6 L384,30.8 L392,31.9 L400,33.0 L408,34.0 L416,34.8 L424,35.6 L432,36.2 L440,36.6 L448,36.9 L456,37.0 L464,36.9 L472,36.7 L480,36.3 L488,35.8 L496,35.1 L504,34.2 L512,33.3 L520,32.2 L528,31.1 L536,29.9 L544,28.7 L552,27.5 L560,26.2 L568,25.1 L576,23.9 L584,22.9 L592,21.9 L600,21.0 L608,20.3 L616,19.8 L624,19.3 L632,19.1 L640,19.0 L648,19.1 L656,19.3 L664,19.8 L672,20.3 L680,21.0 L688,21.9 L696,22.9 L704,23.9 L712,25.1 L720,26.2 L728,27.5 L736,28.7 L744,29.9 L752,31.1 L760,32.2 L768,33.3 L776,34.2 L784,35.1 L792,35.8 L800,36.3 L808,36.7 L816,36.9 L824,37.0 L832,36.9 L840,36.6 L848,36.2 L856,35.6 L864,34.8 L872,34.0 L880,33.0 L888,31.9 L896,30.8 L904,29.6 L912,28.4 L920,27.1 L928,25.9 L936,24.7 L944,23.6 L952,22.6 L960,21.6 L968,20.8 L976,20.1 L984,19.6 L992,19.2 L1000,19.0 L1008,19.0 L1016,19.1 L1024,19.4 L1032,19.9 L1040,20.5 L1048,21.3 L1056,22.2 L1064,23.1 L1072,24.2 L1080,25.4 L1088,26.6 L1096,27.8 L1104,29.1 L1112,30.3 L1120,31.4 L1128,32.6 L1136,33.6 L1144,34.5 L1152,35.3 L1160,35.9 L1168,36.4 L1176,36.8 L1184,37.0 L1192,37.0 L1200,36.8 L1208,36.5 L1216,36.0 L1224,35.4 L1232,34.6 L1240,33.7 L1248,32.7 L1256,31.6 L1264,30.4 L1272,29.2 L1280,28.0" fill="none" stroke="#86efac" stroke-width="1.4" opacity="0.55" stroke-dasharray="7 9">
    <animate attributeName="stroke-dashoffset" from="0" to="-64" dur="6s" repeatCount="indefinite"/>
  </path>
</svg>
