<?xml version="1.0" encoding="UTF-8"?>
<svg xmlns="http://www.w3.org/2000/svg" viewBox="0 0 1280 56" width="1280" height="56" role="img" aria-hidden="true">
  <path d="M0,28.0 L8,29.6 L16,31.1 L24,32.5 L32,33.9 L40,35.1 L48,36.1 L56,36.9 L64,37.5 L72,37.9 L80,38.0 L88,37.9 L96,37.5 L104,36.9 L112,36.1 L120,35.1 L128,33.9 L136,32.5 L144,31.1 L152,29.6 L160,28.0 L168,26.4 L176,24.9 L184,23.5 L192,22.1 L200,20.9 L208,19.9 L216,19.1 L224,18.5 L232,18.1 L240,18.0 L248,18.1 L256,18.5 L264,19.1 L272,19.9 L280,20.9 L288,22.1 L296,23.5 L304,24.9 L312,26.4 L320,28.0 L328,29.6 L336,31.1 L344,32.5 L352,33.9 L360,35.1 L368,36.1 L376,36.9 L384,37.5 L392,37.9 L400,38.0 L408,37.9 L416,37.5 L424,36.9 L432,36.1 L440,35.1 L448,33.9 L456,32.5 L464,31.1 L472,29.6 L480,28.0 L488,26.4 L496,24.9 L504,23.5 L512,22.1 L520,20.9 L528,19.9 L536,19.1 L544,18.5 L552,18.1 L560,18.0 L568,18.1 L576,18.5 L584,19.1 L592,19.9 L600,20.9 L608,22.1 L616,23.5 L624,24.9 L632,26.4 L640,28.0 L648,29.6 L656,31.1 L664,32.5 L672,33.9 L680,35.1 L688,36.1 L696,36.9 L704,37.5 L712,37.9 L720,38.0 L728,37.9 L736,37.5 L744,36.9 L752,36.1 L760,35.1 L768,33.9 L776,32.5 L784,31.1 L792,29.6 L800,28.0 L808,26.4 L816,24.9 L824,23.5 L832,22.1 L840,20.9 L848,19.9 L856,19.1 L864,18.5 L872,18.1 L880,18.0 L888,18.1 L896,18.5 L904,19.1 L912,19.9 L920,20.9 L928,22.1 L936,23.5 L944,24.9 L952,26.4 L960,28.0 L968,29.6 L976,31.1 L984,32.5 L992,33.9 L1000,35.1 L1008,36.1 L1016,36.9 L1024,37.5 L1032,37.9 L1040,38.0 L1048,37.9 L1056,37.5 L1064,36.9 L1072,36.1 L1080,35.1 L1088,33.9 L1096,32.5 L1104,31.1 L1112,29.6 L1120,28.0 L1128,26.4 L1136,24.9 L1144,23.5 L1152,22.1 L1160,20.9 L1168,19.9 L1176,19.1 L1184,18.5 L1192,18.1 L1200,18.0 L1208,18.1 L1216,18.5 L1224,19.1 L1232,19.9 L1240,20.9 L1248,22.1 L1256,23.5 L1264,24.9 L1272,26.4 L1280,28.0" fill="none" stroke="#14b8a6" stroke-width="1.4" opacity="0.55" stroke-dasharray="8 10">
    <animate attributeName="stroke-dashoffset" from="0" to="-72" dur="6s" repeatCount="indefinite"/>
  </path>
</svg>
