<?xml version="1.0" encoding="UTF-8"?>
<svg xmlns="http://www.w3.org/2000/svg" viewBox="0 0 1280 400" width="1280" height="400" role="img" aria-labelledby="title desc">
  <title id="title">Cael Findley — Software Developer</title>
  <desc id="desc">Aurora and orbit animated banner for personal GitHub profile (dark)</desc>
  <defs>
    <linearGradient id="sky" x1="0%" y1="0%" x2="100%" y2="100%">
      <stop offset="0%" stop-color="#0d1117"/>
      <stop offset="50%" stop-color="#0f1419"/>
      <stop offset="100%" stop-color="#0d1117"/>
    </linearGradient>
    <radialGradient id="auroraA" cx="28%" cy="40%" r="42%">
      <stop offset="0%" stop-color="#134e4a" stop-opacity="0.85"/>
      <stop offset="100%" stop-color="#0d1117" stop-opacity="0"/>
      <animate attributeName="cx" values="28%;34%;24%;28%" dur="22s" repeatCount="indefinite"/>
      <animate attributeName="cy" values="40%;32%;46%;40%" dur="22s" repeatCount="indefinite"/>
    </radialGradient>
    <radialGradient id="auroraB" cx="72%" cy="55%" r="38%">
      <stop offset="0%" stop-color="#164e63" stop-opacity="0.55"/>
      <stop offset="100%" stop-color="#0d1117" stop-opacity="0"/>
      <animate attributeName="cx" values="72%;66%;78%;72%" dur="26s" repeatCount="indefinite"/>
      <animate attributeName="cy" values="55%;62%;48%;55%" dur="26s" repeatCount="indefinite"/>
    </radialGradient>
    <radialGradient id="auroraC" cx="50%" cy="20%" r="30%">
      <stop offset="0%" stop-color="#67e8f9" stop-opacity="0.18"/>
      <stop offset="100%" stop-color="#0d1117" stop-opacity="0"/>
      <animate attributeName="opacity" values="0.5;1;0.5" dur="10s" repeatCount="indefinite"/>
    </radialGradient>
    <linearGradient id="fadeY" x1="0" y1="0" x2="0" y2="1">
      <stop offset="0%" stop-color="white" stop-opacity="0"/>
      <stop offset="10%" stop-color="white" stop-opacity="1"/>
      <stop offset="78%" stop-color="white" stop-opacity="1"/>
      <stop offset="100%" stop-color="white" stop-opacity="0"/>
    </linearGradient>
    <mask id="pageBlend" maskUnits="userSpaceOnUse" x="0" y="0" width="1280" height="400">
      <rect width="1280" height="400" fill="url(#fadeY)"/>
    </mask>
  </defs>
  <g mask="url(#pageBlend)">
  <rect width="1280" height="400" fill="url(#sky)"/>
  <rect width="1280" height="400" fill="url(#auroraA)"/>
  <rect width="1280" height="400" fill="url(#auroraB)"/>
  <rect width="1280" height="400" fill="url(#auroraC)"/>
  <g fill="#ccfbf1">
    <circle cx="73" cy="27" r="0.5" opacity="0.15">
      <animate attributeName="opacity" values="0.15;0.60;0.15" dur="3.5s" begin="0.0s" repeatCount="indefinite"/>
    </circle>
    <circle cx="131" cy="67" r="0.85" opacity="0.23">
      <animate attributeName="opacity" values="0.23;0.68;0.23" dur="4.0s" begin="0.2s" repeatCount="indefinite"/>
    </circle>
    <circle cx="271" cy="107" r="1.2" opacity="0.31">
      <animate attributeName="opacity" values="0.31;0.76;0.31" dur="4.6s" begin="0.5s" repeatCount="indefinite"/>
    </circle>
    <circle cx="493" cy="147" r="1.5499999999999998" opacity="0.39">
      <animate attributeName="opacity" values="0.39;0.84;0.39" dur="5.2s" begin="0.8s" repeatCount="indefinite"/>
    </circle>
    <circle cx="797" cy="187" r="0.5" opacity="0.47">
      <animate attributeName="opacity" values="0.47;0.92;0.47" dur="5.7s" begin="1.0s" repeatCount="indefinite"/>
    </circle>
    <circle cx="1183" cy="227" r="0.85" opacity="0.15">
      <animate attributeName="opacity" values="0.15;0.60;0.15" dur="6.2s" begin="1.2s" repeatCount="indefinite"/>
    </circle>
    <circle cx="411" cy="267" r="1.2" opacity="0.23">
      <animate attributeName="opacity" values="0.23;0.68;0.23" dur="6.8s" begin="1.5s" repeatCount="indefinite"/>
    </circle>
    <circle cx="961" cy="307" r="1.5499999999999998" opacity="0.31">
      <animate attributeName="opacity" values="0.31;0.76;0.31" dur="3.5s" begin="1.8s" repeatCount="indefinite"/>
    </circle>
    <circle cx="353" cy="347" r="0.5" opacity="0.39">
      <animate attributeName="opacity" values="0.39;0.84;0.39" dur="4.0s" begin="2.0s" repeatCount="indefinite"/>
    </circle>
    <circle cx="1067" cy="288" r="0.85" opacity="0.47">
      <animate attributeName="opacity" values="0.47;0.92;0.47" dur="4.6s" begin="2.2s" repeatCount="indefinite"/>
    </circle>
    <circle cx="623" cy="328" r="1.2" opacity="0.15">
      <animate attributeName="opacity" values="0.15;0.60;0.15" dur="5.2s" begin="2.5s" repeatCount="indefinite"/>
    </circle>
    <circle cx="261" cy="368" r="1.5499999999999998" opacity="0.23">
      <animate attributeName="opacity" values="0.23;0.68;0.23" dur="5.7s" begin="2.8s" repeatCount="indefinite"/>
    </circle>
    <circle cx="1221" cy="48" r="0.5" opacity="0.31">
      <animate attributeName="opacity" values="0.31;0.76;0.31" dur="6.2s" begin="0.0s" repeatCount="indefinite"/>
    </circle>
    <circle cx="1023" cy="88" r="0.85" opacity="0.39">
      <animate attributeName="opacity" values="0.39;0.84;0.39" dur="6.8s" begin="0.2s" repeatCount="indefinite"/>
    </circle>
    <circle cx="907" cy="128" r="1.2" opacity="0.47">
      <animate attributeName="opacity" values="0.47;0.92;0.47" dur="3.5s" begin="0.5s" repeatCount="indefinite"/>
    </circle>
    <circle cx="873" cy="168" r="1.5499999999999998" opacity="0.15">
      <animate attributeName="opacity" values="0.15;0.60;0.15" dur="4.0s" begin="0.8s" repeatCount="indefinite"/>
    </circle>
    <circle cx="921" cy="208" r="0.5" opacity="0.23">
      <animate attributeName="opacity" values="0.23;0.68;0.23" dur="4.6s" begin="1.0s" repeatCount="indefinite"/>
    </circle>
    <circle cx="1051" cy="248" r="0.85" opacity="0.31">
      <animate attributeName="opacity" values="0.31;0.76;0.31" dur="5.2s" begin="1.2s" repeatCount="indefinite"/>
    </circle>
    <circle cx="23" cy="189" r="1.2" opacity="0.39">
      <animate attributeName="opacity" values="0.39;0.84;0.39" dur="5.7s" begin="1.5s" repeatCount="indefinite"/>
    </circle>
    <circle cx="317" cy="229" r="1.5499999999999998" opacity="0.47">
      <animate attributeName="opacity" values="0.47;0.92;0.47" dur="6.2s" begin="1.8s" repeatCount="indefinite"/>
    </circle>
    <circle cx="693" cy="269" r="0.5" opacity="0.15">
      <animate attributeName="opacity" values="0.15;0.60;0.15" dur="6.8s" begin="2.0s" repeatCount="indefinite"/>
    </circle>
    <circle cx="1151" cy="309" r="0.85" opacity="0.23">
      <animate attributeName="opacity" values="0.23;0.68;0.23" dur="3.5s" begin="2.2s" repeatCount="indefinite"/>
    </circle>
    <circle cx="451" cy="349" r="1.2" opacity="0.31">
      <animate attributeName="opacity" values="0.31;0.76;0.31" dur="4.0s" begin="2.5s" repeatCount="indefinite"/>
    </circle>
    <circle cx="1073" cy="29" r="1.5499999999999998" opacity="0.39">
      <animate attributeName="opacity" values="0.39;0.84;0.39" dur="4.6s" begin="2.8s" repeatCount="indefinite"/>
    </circle>
    <circle cx="537" cy="69" r="0.5" opacity="0.47">
      <animate attributeName="opacity" values="0.47;0.92;0.47" dur="5.2s" begin="0.0s" repeatCount="indefinite"/>
    </circle>
    <circle cx="83" cy="109" r="0.85" opacity="0.15">
      <animate attributeName="opacity" values="0.15;0.60;0.15" dur="5.7s" begin="0.2s" repeatCount="indefinite"/>
    </circle>
    <circle cx="951" cy="149" r="1.2" opacity="0.23">
      <animate attributeName="opacity" values="0.23;0.68;0.23" dur="6.2s" begin="0.5s" repeatCount="indefinite"/>
    </circle>
    <circle cx="661" cy="90" r="1.5499999999999998" opacity="0.31">
      <animate attributeName="opacity" values="0.31;0.76;0.31" dur="6.8s" begin="0.8s" repeatCount="indefinite"/>
    </circle>
    <circle cx="453" cy="130" r="0.5" opacity="0.39">
      <animate attributeName="opacity" values="0.39;0.84;0.39" dur="3.5s" begin="1.0s" repeatCount="indefinite"/>
    </circle>
    <circle cx="327" cy="170" r="0.85" opacity="0.47">
      <animate attributeName="opacity" values="0.47;0.92;0.47" dur="4.0s" begin="1.2s" repeatCount="indefinite"/>
    </circle>
    <circle cx="283" cy="210" r="1.2" opacity="0.15">
      <animate attributeName="opacity" values="0.15;0.60;0.15" dur="4.6s" begin="1.5s" repeatCount="indefinite"/>
    </circle>
    <circle cx="321" cy="250" r="1.5499999999999998" opacity="0.23">
      <animate attributeName="opacity" values="0.23;0.68;0.23" dur="5.2s" begin="1.8s" repeatCount="indefinite"/>
    </circle>
    <circle cx="441" cy="290" r="0.5" opacity="0.31">
      <animate attributeName="opacity" values="0.31;0.76;0.31" dur="5.7s" begin="2.0s" repeatCount="indefinite"/>
    </circle>
    <circle cx="643" cy="330" r="0.85" opacity="0.39">
      <animate attributeName="opacity" values="0.39;0.84;0.39" dur="6.2s" begin="2.2s" repeatCount="indefinite"/>
    </circle>
    <circle cx="927" cy="370" r="1.2" opacity="0.47">
      <animate attributeName="opacity" values="0.47;0.92;0.47" dur="6.8s" begin="2.5s" repeatCount="indefinite"/>
    </circle>
    <circle cx="53" cy="50" r="1.5499999999999998" opacity="0.15">
      <animate attributeName="opacity" values="0.15;0.60;0.15" dur="3.5s" begin="2.8s" repeatCount="indefinite"/>
    </circle>
    <circle cx="501" cy="351" r="0.5" opacity="0.23">
      <animate attributeName="opacity" values="0.23;0.68;0.23" dur="4.0s" begin="0.0s" repeatCount="indefinite"/>
    </circle>
    <circle cx="1031" cy="31" r="0.85" opacity="0.31">
      <animate attributeName="opacity" values="0.31;0.76;0.31" dur="4.6s" begin="0.2s" repeatCount="indefinite"/>
    </circle>
    <circle cx="403" cy="71" r="1.2" opacity="0.39">
      <animate attributeName="opacity" values="0.39;0.84;0.39" dur="5.2s" begin="0.5s" repeatCount="indefinite"/>
    </circle>
    <circle cx="1097" cy="111" r="1.5499999999999998" opacity="0.47">
      <animate attributeName="opacity" values="0.47;0.92;0.47" dur="5.7s" begin="0.8s" repeatCount="indefinite"/>
    </circle>
    <circle cx="633" cy="151" r="0.5" opacity="0.15">
      <animate attributeName="opacity" values="0.15;0.60;0.15" dur="6.2s" begin="1.0s" repeatCount="indefinite"/>
    </circle>
    <circle cx="251" cy="191" r="0.85" opacity="0.23">
      <animate attributeName="opacity" values="0.23;0.68;0.23" dur="6.8s" begin="1.2s" repeatCount="indefinite"/>
    </circle>
    <circle cx="1191" cy="231" r="1.2" opacity="0.31">
      <animate attributeName="opacity" values="0.31;0.76;0.31" dur="3.5s" begin="1.5s" repeatCount="indefinite"/>
    </circle>
    <circle cx="973" cy="271" r="1.5499999999999998" opacity="0.39">
      <animate attributeName="opacity" values="0.39;0.84;0.39" dur="4.0s" begin="1.8s" repeatCount="indefinite"/>
    </circle>
    <circle cx="837" cy="311" r="0.5" opacity="0.47">
      <animate attributeName="opacity" values="0.47;0.92;0.47" dur="4.6s" begin="2.0s" repeatCount="indefinite"/>
    </circle>
    <circle cx="783" cy="252" r="0.85" opacity="0.15">
      <animate attributeName="opacity" values="0.15;0.60;0.15" dur="5.2s" begin="2.2s" repeatCount="indefinite"/>
    </circle>
    <circle cx="811" cy="292" r="1.2" opacity="0.23">
      <animate attributeName="opacity" values="0.23;0.68;0.23" dur="5.7s" begin="2.5s" repeatCount="indefinite"/>
    </circle>
    <circle cx="921" cy="332" r="1.5499999999999998" opacity="0.31">
      <animate attributeName="opacity" values="0.31;0.76;0.31" dur="6.2s" begin="2.8s" repeatCount="indefinite"/>
    </circle>
    <circle cx="1113" cy="372" r="0.5" opacity="0.39">
      <animate attributeName="opacity" values="0.39;0.84;0.39" dur="6.8s" begin="0.0s" repeatCount="indefinite"/>
    </circle>
    <circle cx="147" cy="52" r="0.85" opacity="0.47">
      <animate attributeName="opacity" values="0.47;0.92;0.47" dur="3.5s" begin="0.2s" repeatCount="indefinite"/>
    </circle>
    <circle cx="503" cy="92" r="1.2" opacity="0.15">
      <animate attributeName="opacity" values="0.15;0.60;0.15" dur="4.0s" begin="0.5s" repeatCount="indefinite"/>
    </circle>
    <circle cx="941" cy="132" r="1.5499999999999998" opacity="0.23">
      <animate attributeName="opacity" values="0.23;0.68;0.23" dur="4.6s" begin="0.8s" repeatCount="indefinite"/>
    </circle>
  </g>
  <g fill="none" transform="translate(0,0)">
    <ellipse cx="980" cy="200" rx="90" ry="90" stroke="#2dd4bf" stroke-width="1.1" opacity="0.35">
      <animateTransform attributeName="transform" type="rotate" values="0 980 200; 360 980 200" dur="28s" repeatCount="indefinite"/>
    </ellipse>
    <circle cx="1070" cy="200" r="3" fill="#5eead4" opacity="0.85">
      <animateTransform attributeName="transform" type="rotate" values="0 980 200; 360 980 200" dur="20s" repeatCount="indefinite"/>
      <animate attributeName="opacity" values="0.4;1;0.4" dur="3s" begin="0.0s" repeatCount="indefinite"/>
    </circle>
    <ellipse cx="980" cy="200" rx="130" ry="70" stroke="#2dd4bf" stroke-width="1.1" opacity="0.28">
      <animateTransform attributeName="transform" type="rotate" values="0 980 200; 360 980 200" dur="36s" repeatCount="indefinite"/>
    </ellipse>
    <circle cx="1110" cy="200" r="3" fill="#5eead4" opacity="0.85">
      <animateTransform attributeName="transform" type="rotate" values="40 980 200; 400 980 200" dur="25s" repeatCount="indefinite"/>
      <animate attributeName="opacity" values="0.4;1;0.4" dur="3s" begin="0.4s" repeatCount="indefinite"/>
    </circle>
    <ellipse cx="980" cy="200" rx="170" ry="110" stroke="#2dd4bf" stroke-width="1.1" opacity="0.2">
      <animateTransform attributeName="transform" type="rotate" values="0 980 200; 360 980 200" dur="44s" repeatCount="indefinite"/>
    </ellipse>
    <circle cx="1150" cy="200" r="3" fill="#5eead4" opacity="0.85">
      <animateTransform attributeName="transform" type="rotate" values="80 980 200; 440 980 200" dur="31s" repeatCount="indefinite"/>
      <animate attributeName="opacity" values="0.4;1;0.4" dur="3s" begin="0.8s" repeatCount="indefinite"/>
    </circle>
    <circle cx="980" cy="200" r="8" fill="#5eead4" opacity="0.9">
      <animate attributeName="r" values="7;10;7" dur="4s" repeatCount="indefinite"/>
    </circle>
    <circle cx="980" cy="200" r="18" fill="none" stroke="#67e8f9" stroke-width="1" opacity="0.35">
      <animate attributeName="r" values="16;24;16" dur="4s" repeatCount="indefinite"/>
      <animate attributeName="opacity" values="0.4;0.08;0.4" dur="4s" repeatCount="indefinite"/>
    </circle>
  </g>
  <g fill="none" stroke-linecap="round">
    <path d="M0,310.0 L8,311.2 L16,312.3 L24,313.5 L32,314.6 L40,315.7 L48,316.7 L56,317.6 L64,318.5 L72,319.3 L80,320.0 L88,320.6 L96,321.1 L104,321.5 L112,321.8 L120,321.9 L128,322.0 L136,321.9 L144,321.8 L152,321.5 L160,321.1 L168,320.6 L176,320.0 L184,319.3 L192,318.5 L200,317.6 L208,316.7 L216,315.7 L224,314.6 L232,313.5 L240,312.3 L248,311.2 L256,310.0 L264,308.8 L272,307.7 L280,306.5 L288,305.4 L296,304.3 L304,303.3 L312,302.4 L320,301.5 L328,300.7 L336,300.0 L344,299.4 L352,298.9 L360,298.5 L368,298.2 L376,298.1 L384,298.0 L392,298.1 L400,298.2 L408,298.5 L416,298.9 L424,299.4 L432,300.0 L440,300.7 L448,301.5 L456,302.4 L464,303.3 L472,304.3 L480,305.4 L488,306.5 L496,307.7 L504,308.8 L512,310.0 L520,311.2 L528,312.3 L536,313.5 L544,314.6 L552,315.7 L560,316.7 L568,317.6 L576,318.5 L584,319.3 L592,320.0 L600,320.6 L608,321.1 L616,321.5 L624,321.8 L632,321.9 L640,322.0 L648,321.9 L656,321.8 L664,321.5 L672,321.1 L680,320.6 L688,320.0 L696,319.3 L704,318.5 L712,317.6 L720,316.7 L728,315.7 L736,314.6 L744,313.5 L752,312.3 L760,311.2 L768,310.0 L776,308.8 L784,307.7 L792,306.5 L800,305.4 L808,304.3 L816,303.3 L824,302.4 L832,301.5 L840,300.7 L848,300.0 L856,299.4 L864,298.9 L872,298.5 L880,298.2 L888,298.1 L896,298.0 L904,298.1 L912,298.2 L920,298.5 L928,298.9 L936,299.4 L944,300.0 L952,300.7 L960,301.5 L968,302.4 L976,303.3 L984,304.3 L992,305.4 L1000,306.5 L1008,307.7 L1016,308.8 L1024,310.0 L1032,311.2 L1040,312.3 L1048,313.5 L1056,314.6 L1064,315.7 L1072,316.7 L1080,317.6 L1088,318.5 L1096,319.3 L1104,320.0 L1112,320.6 L1120,321.1 L1128,321.5 L1136,321.8 L1144,321.9 L1152,322.0 L1160,321.9 L1168,321.8 L1176,321.5 L1184,321.1 L1192,320.6 L1200,320.0 L1208,319.3 L1216,318.5 L1224,317.6 L1232,316.7 L1240,315.7 L1248,314.6 L1256,313.5 L1264,312.3 L1272,311.2 L1280,310.0" stroke="#5eead4" stroke-width="1.5" opacity="0.45" stroke-dasharray="6 10">
      <animate attributeName="stroke-dashoffset" from="0" to="-80" dur="8s" repeatCount="indefinite"/>
      <animate attributeName="opacity" values="0.25;0.55;0.25" dur="6s" repeatCount="indefinite"/>
    </path>
    <path d="M0,330.0 L8,331.0 L16,332.0 L24,332.9 L32,333.9 L40,334.7 L48,335.5 L56,336.2 L64,336.8 L72,337.2 L80,337.6 L88,337.9 L96,338.0 L104,338.0 L112,337.9 L120,337.6 L128,337.2 L136,336.8 L144,336.2 L152,335.5 L160,334.7 L168,333.9 L176,332.9 L184,332.0 L192,331.0 L200,330.0 L208,329.0 L216,328.0 L224,327.1 L232,326.1 L240,325.3 L248,324.5 L256,323.8 L264,323.2 L272,322.8 L280,322.4 L288,322.1 L296,322.0 L304,322.0 L312,322.1 L320,322.4 L328,322.8 L336,323.2 L344,323.8 L352,324.5 L360,325.3 L368,326.1 L376,327.1 L384,328.0 L392,329.0 L400,330.0 L408,331.0 L416,332.0 L424,332.9 L432,333.9 L440,334.7 L448,335.5 L456,336.2 L464,336.8 L472,337.2 L480,337.6 L488,337.9 L496,338.0 L504,338.0 L512,337.9 L520,337.6 L528,337.2 L536,336.8 L544,336.2 L552,335.5 L560,334.7 L568,333.9 L576,332.9 L584,332.0 L592,331.0 L600,330.0 L608,329.0 L616,328.0 L624,327.1 L632,326.1 L640,325.3 L648,324.5 L656,323.8 L664,323.2 L672,322.8 L680,322.4 L688,322.1 L696,322.0 L704,322.0 L712,322.1 L720,322.4 L728,322.8 L736,323.2 L744,323.8 L752,324.5 L760,325.3 L768,326.1 L776,327.1 L784,328.0 L792,329.0 L800,330.0 L808,331.0 L816,332.0 L824,332.9 L832,333.9 L840,334.7 L848,335.5 L856,336.2 L864,336.8 L872,337.2 L880,337.6 L888,337.9 L896,338.0 L904,338.0 L912,337.9 L920,337.6 L928,337.2 L936,336.8 L944,336.2 L952,335.5 L960,334.7 L968,333.9 L976,332.9 L984,332.0 L992,331.0 L1000,330.0 L1008,329.0 L1016,328.0 L1024,327.1 L1032,326.1 L1040,325.3 L1048,324.5 L1056,323.8 L1064,323.2 L1072,322.8 L1080,322.4 L1088,322.1 L1096,322.0 L1104,322.0 L1112,322.1 L1120,322.4 L1128,322.8 L1136,323.2 L1144,323.8 L1152,324.5 L1160,325.3 L1168,326.1 L1176,327.1 L1184,328.0 L1192,329.0 L1200,330.0 L1208,331.0 L1216,332.0 L1224,332.9 L1232,333.9 L1240,334.7 L1248,335.5 L1256,336.2 L1264,336.8 L1272,337.2 L1280,337.6" stroke="#67e8f9" stroke-width="1" opacity="0.3" stroke-dasharray="4 12">
      <animate attributeName="stroke-dashoffset" from="0" to="64" dur="10s" repeatCount="indefinite"/>
    </path>
  </g>
  <g>
    <text x="72" y="88" fill="#5eead4" font-family="ui-monospace, SFMono-Regular, Menlo, Consolas, monospace" font-size="12" font-weight="600" letter-spacing="3.5" opacity="0">
      SOFTWARE DEVELOPER
      <animate attributeName="opacity" from="0" to="1" begin="0.2s" dur="0.6s" fill="freeze"/>
    </text>
    <text x="72" y="168" fill="#f0f4f8" font-family="Georgia, 'Times New Roman', Times, serif" font-size="64" font-weight="400" letter-spacing="-1.2" opacity="0">
      Cael Findley
      <animate attributeName="opacity" from="0" to="1" begin="0.5s" dur="0.9s" fill="freeze"/>
      <animateTransform attributeName="transform" type="translate" values="0,16; 0,0" begin="0.5s" dur="0.9s" fill="freeze" calcMode="spline" keyTimes="0;1" keySplines="0.22 1 0.36 1"/>
    </text>
    <text x="72" y="214" fill="#9fb0c0" font-family="-apple-system, BlinkMacSystemFont, 'Segoe UI', Helvetica, Arial, sans-serif" font-size="17" opacity="0">
      AI systems · full-stack products · systems programming
      <animate attributeName="opacity" from="0" to="1" begin="1.2s" dur="0.7s" fill="freeze"/>
    </text>
    <text x="72" y="248" fill="#6b7c8c" font-family="ui-monospace, SFMono-Regular, Menlo, Consolas, monospace" font-size="12" letter-spacing="1.5" opacity="0">
      Texas A&amp;M CS  ·  @cael1127
      <animate attributeName="opacity" from="0" to="1" begin="1.6s" dur="0.6s" fill="freeze"/>
    </text>
    <rect x="72" y="272" width="0" height="2" fill="#5eead4" rx="1" opacity="0.9">
      <animate attributeName="width" from="0" to="180" begin="2.0s" dur="1.1s" fill="freeze" calcMode="spline" keyTimes="0;1" keySplines="0.4 0 0.2 1"/>
    </rect>
  </g>
  </g>
</svg>
